# xmcd CD database file
#
# Track frame offsets:
#	150
#	14038
#	31420
#	53700
#	78362
#	146596
#	169922
#	186471
#	214123
#	227396
#	243727
#
# Disc length: 3486 seconds
#
# Revision: 0
# Processed by: cddbd v1.5.2PL0 Copyright (c) Steve Scherf et al.
# Submitted via: CDex 1.51
#
DISCID=980d9c0b
DTITLE=Bottleneck John - Live at the Copenhagen Blues Festival 2006
DYEAR=2006
DGENRE=Blues
TTITLE0=Come On In My Kitchen
TTITLE1=Gypsy Woman
TTITLE2=Water Under The Bridge
TTITLE3=Crossroads Blues
TTITLE4=Dark Was The Night, Cold Was The Ground
TTITLE5=Goin' Down Slow
TTITLE6=Didn't My Lord Deliver Daniel
TTITLE7=Nobody's Fault But Mine
TTITLE8=Kind Hearted Woman Blues
TTITLE9=Crawlin' Kingsnake
TTITLE10=Last Fair Deal Goin' Down
EXTD=YEAR: 2006
EXTT0=
EXTT1=
EXTT2=
EXTT3=
EXTT4=
EXTT5=
EXTT6=
EXTT7=
EXTT8=
EXTT9=
EXTT10=
PLAYORDER=
